<?xml version="1.0" standalone="no"?>
<!DOCTYPE svg PUBLIC "-//W3C//DTD SVG 20010904//EN"
 "http://www.w3.org/TR/2001/REC-SVG-20010904/DTD/svg10.dtd">
<svg version="1.0" xmlns="http://www.w3.org/2000/svg"
 width="700.000000pt" height="700.000000pt" viewBox="0 0 700.000000 700.000000"
 preserveAspectRatio="xMidYMid meet">
<metadata>
Created by potrace 1.14, written by Peter Selinger 2001-2017
</metadata>
<g transform="translate(0.000000,700.000000) scale(0.100000,-0.100000)"
fill="#000000" stroke="none">
<path d="M535 6985 c-238 -52 -425 -221 -501 -451 l-29 -89 0 -2945 0 -2945
29 -89 c68 -206 226 -364 433 -432 l88 -29 2950 0 2950 0 86 31 c205 73 353
222 426 429 l28 80 0 2950 0 2950 -29 88 c-67 205 -221 361 -427 433 l-84 29
-2930 2 c-2388 1 -2941 -1 -2990 -12z m2415 -2195 c0 -786 1 -820 18 -820 13
0 28 21 50 73 127 288 369 474 694 532 146 26 397 17 533 -19 378 -100 650
-389 743 -791 39 -167 42 -262 42 -1331 l0 -1034 -500 0 -499 0 -4 983 c-2
879 -4 988 -19 1036 -74 239 -233 355 -488 355 -225 0 -388 -95 -476 -279 -64
-133 -64 -126 -64 -1161 l0 -934 -500 0 -500 0 0 2105 0 2105 485 0 485 0 0
-820z"/>
</g>
</svg>
